<svg version="1.1" id="Layer_1" xmlns="http://www.w3.org/2000/svg" xmlns:xlink="http://www.w3.org/1999/xlink" x="0px" y="0px"
	 width="100%" viewBox="0 0 500 500" enable-background="new 0 0 500 500" xml:space="preserve">
<path fill="none" opacity="1.000000" stroke="#000000" stroke-linecap="round" stroke-linejoin="round" stroke-width="3.000000"
	d="
M434.500000,253.500000 
	C433.138184,230.314362 427.407990,208.238541 416.941162,187.529739 
	C407.198730,168.254211 394.197571,151.484924 378.112854,136.875748 
	C364.477295,124.491074 349.550537,114.265465 332.957275,106.592377 
	C313.180725,97.447250 292.400787,91.834991 270.504089,90.435860 
	C248.548279,89.032928 227.059769,90.926933 205.991730,97.473404 
	C183.125824,104.578545 162.659958,115.784149 144.396301,131.378555 
	C135.856216,138.670517 128.644394,147.000793 121.505951,155.505005 
	C118.976761,158.518066 119.318916,161.736084 121.000000,165.000000 
"/>
<path fill="none" opacity="1.000000" stroke="#000000" stroke-linecap="round" stroke-linejoin="round" stroke-width="5.000000"
	d="
M410.500000,220.500000 
	C406.441101,199.546280 397.003479,180.925644 384.393982,164.079346 
	C360.590637,132.278046 329.033844,111.555023 290.464111,102.147186 
	C274.313446,98.207764 257.791321,96.781731 240.983948,98.325203 
	C228.184326,99.500641 215.529053,101.178543 203.551453,105.638199 
	C189.075943,111.027908 174.153305,116.258087 162.173233,126.208572 
	C150.789642,135.663635 138.954498,144.970581 130.123428,157.089935 
	C126.896469,161.518463 122.049759,164.002014 118.940239,168.458298 
	C112.391983,177.842667 107.691177,188.158157 103.013130,198.505936 
	C102.581192,199.461349 101.780502,200.728943 102.085197,201.464722 
	C105.263000,209.138535 100.359352,215.567947 98.951981,222.490234 
	C93.147812,251.038681 95.608063,278.773651 105.928986,306.026886 
	C114.745880,329.308624 128.498917,349.119659 147.071518,365.418518 
	C168.122070,383.891876 192.706116,395.378998 220.511932,399.417816 
	C228.767914,400.617035 237.166672,400.833313 245.500000,401.499969 
"/>
<path fill="none" opacity="1.000000" stroke="#000000" stroke-linecap="round" stroke-linejoin="round" stroke-width="6.000000"
	d="
M197.500000,91.000000 
	C183.042053,95.726814 169.582138,102.562149 157.035995,111.053192 
	C136.196487,125.157104 119.078430,143.083740 106.139679,164.584061 
	C95.762619,181.827637 88.554329,200.486252 84.919724,220.485413 
	C81.314247,240.324249 80.949509,260.087341 83.883141,280.017212 
	C84.461304,283.945007 83.875664,288.055664 84.977943,292.006165 
	C85.531204,293.988983 85.700974,296.338989 87.535721,297.440491 
	C93.297585,300.899689 94.411667,307.208344 95.205818,312.543793 
	C96.924400,324.089935 102.631317,333.782745 108.762711,342.821808 
	C119.040550,357.973633 130.640320,372.294922 145.486099,383.518372 
	C152.579895,388.881348 159.540710,394.417969 167.499832,398.500336 
	C169.414520,399.482422 170.733047,400.613739 171.678116,402.927246 
	C173.281281,406.851685 177.035904,408.790070 180.956390,410.594757 
	C195.074371,417.093597 209.888763,421.238373 225.007370,424.465485 
	C226.627060,424.811249 228.694351,425.201569 229.949326,424.829193 
	C235.896118,423.064606 241.655716,424.684540 247.503235,424.919495 
	C252.821289,425.133148 258.176880,424.804443 263.493347,424.410126 
	C264.954102,424.301788 266.514954,423.390594 267.500000,422.000000 
"/>
<path fill="none" opacity="1.000000" stroke="#000000" stroke-linecap="round" stroke-linejoin="round" stroke-width="8.000000"
	d="
M405.500000,326.500000 
	C399.813446,337.936462 393.418121,348.919678 385.519928,359.015594 
	C364.818237,385.477722 338.990448,404.886902 306.953186,415.356750 
	C297.301453,418.510986 287.179504,420.415649 276.997437,421.475464 
	C274.192963,421.767395 271.584351,420.808014 269.537720,418.958252 
	C267.172577,416.820618 264.759399,416.311615 261.497742,416.367035 
	C238.162079,416.763458 215.345352,413.659943 193.509201,404.976868 
	C190.116623,403.627808 186.738998,402.252014 183.428009,400.648682 
	C179.742249,398.863922 175.500000,398.979431 171.500000,400.500000 
"/>
<path fill="none" opacity="1.000000" stroke="#000000" stroke-linecap="round" stroke-linejoin="round" stroke-width="6.000000"
	d="
M396.500000,317.500000 
	C383.732544,350.561432 361.481598,375.815918 331.372131,393.785736 
	C316.257111,402.806671 299.658966,409.055206 282.040253,412.223755 
	C278.581757,412.845734 273.710144,411.280823 271.500000,416.000000 
"/>
<path fill="none" opacity="1.000000" stroke="#000000" stroke-linecap="round" stroke-linejoin="round" stroke-width="2.000000"
	d="
M324.500000,83.500000 
	C312.569733,79.303772 300.338165,76.149384 287.979279,73.600517 
	C281.932312,72.353416 275.674438,71.717781 269.498077,71.610916 
	C261.339233,71.469742 253.205063,70.817673 244.990295,71.350273 
	C234.695038,72.017769 224.537674,73.169754 214.493347,75.470955 
	C213.543213,75.688629 212.500000,75.500000 211.500000,75.500000 
"/>
<path fill="none" opacity="1.000000" stroke="#000000" stroke-linecap="round" stroke-linejoin="round" stroke-width="2.000000"
	d="
M84.500000,186.500000 
	C79.392365,200.977142 75.336334,215.643097 73.333641,230.978271 
	C71.201126,247.307571 72.231384,263.406067 74.649483,279.477509 
	C75.404282,284.494080 78.065102,289.212585 78.000000,294.500000 
"/>
<path fill="none" opacity="1.000000" stroke="#000000" stroke-linecap="round" stroke-linejoin="round" stroke-width="5.000000"
	d="
M101.500000,201.500000 
	C95.334824,204.403122 95.098251,210.771667 93.630905,216.036484 
	C88.846512,233.202805 87.957230,250.834000 89.663010,268.484253 
	C90.278519,274.853119 90.966438,281.328430 93.292526,287.577240 
	C94.724487,291.424072 94.493080,296.072510 92.000000,300.000000 
"/>
<path fill="none" opacity="1.000000" stroke="#000000" stroke-linecap="round" stroke-linejoin="round" stroke-width="3.000000"
	d="
M314.500000,421.500000 
	C295.634399,427.514191 276.258942,430.589386 256.501862,430.347656 
	C248.175629,430.245850 239.651276,430.653900 231.500000,428.000000 
"/>
<path fill="none" opacity="1.000000" stroke="#000000" stroke-linecap="round" stroke-linejoin="round" stroke-width="2.000000"
	d="
M103.500000,237.500000 
	C103.385872,243.844864 102.307373,250.109222 102.410614,256.501434 
	C102.630898,270.140869 104.233826,283.505188 108.474792,296.508209 
	C108.671318,297.110779 108.500000,297.833344 108.500000,298.500000 
"/>
<path fill="none" opacity="1.000000" stroke="#000000" stroke-linecap="round" stroke-linejoin="round" stroke-width="2.000000"
	d="
M77.500000,221.500000 
	C76.703918,230.657257 75.021271,239.723846 75.432770,249.002975 
	C75.794838,257.167328 74.820946,265.363861 76.393173,273.520599 
	C76.815086,275.709503 77.106964,278.233826 76.000000,280.500000 
"/>
<path fill="none" opacity="1.000000" stroke="#000000" stroke-linecap="round" stroke-linejoin="round" stroke-width="2.000000"
	d="
M195.500000,80.500000 
	C178.963806,85.318275 163.919662,93.256264 149.500000,102.500000 
"/>
<path fill="none" opacity="1.000000" stroke="#000000" stroke-linecap="round" stroke-linejoin="round" stroke-width="3.000000"
	d="
M249.000000,290.500000 
	C253.876709,299.345825 260.888550,305.107880 270.928802,307.768707 
	C274.373291,308.681549 276.645081,306.799591 279.500000,307.000000 
"/>
<path fill="none" opacity="1.000000" stroke="#000000" stroke-linecap="round" stroke-linejoin="round" stroke-width="4.000000"
	d="
M244.000000,204.000000 
	C244.569168,214.776230 244.736557,225.496887 241.552475,236.015884 
	C240.259430,240.287689 237.893326,243.871887 235.500000,247.500000 
"/>
<path fill="none" opacity="1.000000" stroke="#000000" stroke-linecap="round" stroke-linejoin="round" stroke-width="2.000000"
	d="
M265.000000,281.000000 
	C255.516235,279.908203 245.998108,280.774384 236.500000,280.500000 
"/>
<path fill="none" opacity="1.000000" stroke="#000000" stroke-linecap="round" stroke-linejoin="round" stroke-width="2.000000"
	d="
M318.500000,338.500000 
	C313.000000,337.231110 307.499634,338.424683 302.000183,338.511719 
	C299.761902,338.547119 299.093262,339.708527 298.911560,341.992950 
	C298.464752,347.609833 297.503967,353.177612 295.500000,358.500000 
"/>
<path fill="none" opacity="1.000000" stroke="#000000" stroke-linecap="round" stroke-linejoin="round" stroke-width="2.000000"
	d="
M308.500000,162.500000 
	C308.171204,163.582581 307.338226,164.656158 308.987244,165.524231 
	C311.375488,166.781479 312.798553,165.572296 314.573242,164.087570 
	C316.069397,162.835876 316.553833,161.076828 315.855225,160.103958 
	C314.893707,158.764969 313.481567,157.738297 310.952026,158.273071 
	C308.112732,158.873337 305.731201,160.373199 303.000000,161.000000 
"/>
<path fill="none" opacity="1.000000" stroke="#000000" stroke-linecap="round" stroke-linejoin="round" stroke-width="3.000000"
	d="
M197.500000,339.000000 
	C197.500000,331.531616 196.689835,329.857361 191.988953,329.065582 
	C189.666214,328.674347 187.080826,328.508759 186.467361,331.994263 
	C185.836700,335.577301 187.353653,338.807465 189.989807,339.536835 
	C193.758041,340.579437 197.337463,339.371796 201.004242,339.047974 
	C203.019684,338.869934 203.360306,338.149506 202.500000,336.500000 
"/>
<path fill="none" opacity="1.000000" stroke="#000000" stroke-linecap="round" stroke-linejoin="round" stroke-width="4.000000"
	d="
M254.500000,129.500000 
	C251.249451,129.426056 249.114075,130.099960 246.768112,133.331665 
	C241.058731,141.196701 233.887741,147.859665 224.500000,151.500000 
"/>
<path fill="none" opacity="1.000000" stroke="#000000" stroke-linecap="round" stroke-linejoin="round" stroke-width="3.000000"
	d="
M187.500000,191.500000 
	C189.833328,192.013580 192.133270,192.335754 194.510223,191.530151 
	C196.534027,190.844208 198.646210,190.218201 197.949707,187.512955 
	C197.260574,184.836411 196.239105,182.219299 192.496979,182.985229 
	C190.296097,183.435715 187.737289,185.050842 186.500000,181.500000 
"/>
<path fill="none" opacity="1.000000" stroke="#000000" stroke-linecap="round" stroke-linejoin="round" stroke-width="4.000000"
	d="
M264.000000,204.000000 
	C264.943329,212.230347 264.269409,220.694778 267.902100,228.545303 
	C268.511749,229.862762 268.237335,231.651794 266.557983,233.068710 
	C261.728241,237.143707 257.213043,241.596710 251.500000,244.500000 
"/>
<path fill="none" opacity="1.000000" stroke="#000000" stroke-linecap="round" stroke-linejoin="round" stroke-width="2.000000"
	d="
M224.000000,372.000000 
	C232.166672,372.814209 240.333328,372.821442 248.500000,372.000000 
"/>
<path fill="none" opacity="1.000000" stroke="#000000" stroke-linecap="round" stroke-linejoin="round" stroke-width="3.000000"
	d="
M252.000000,130.000000 
	C257.742004,137.621765 264.554962,143.827438 274.004059,146.485580 
	C276.139099,147.086166 275.473969,149.287109 276.500000,150.500000 
"/>
<path fill="none" opacity="1.000000" stroke="#000000" stroke-linecap="round" stroke-linejoin="round" stroke-width="2.000000"
	d="
M237.500000,352.000000 
	C238.209946,349.837616 240.015045,350.519165 241.500046,350.513123 
	C248.666611,350.483948 255.833328,350.500000 262.967682,350.500000 
	C263.210236,347.002075 262.554504,343.462921 263.638489,339.371643 
	C255.166672,339.878174 246.833328,338.860077 238.500000,340.000000 
"/>
<path fill="none" opacity="1.000000" stroke="#000000" stroke-linecap="round" stroke-linejoin="round" stroke-width="2.000000"
	d="
M249.500000,180.000000 
	C243.527222,181.146439 237.495819,180.185516 231.500092,180.501755 
	C229.660858,180.598770 227.771820,180.156647 226.000000,181.000000 
"/>
<path fill="none" opacity="1.000000" stroke="#000000" stroke-linecap="round" stroke-linejoin="round" stroke-width="3.000000"
	d="
M251.000000,159.000000 
	C251.000000,149.000000 251.000000,149.000000 241.000000,149.000000 
	C239.833328,149.000000 238.666672,149.000000 237.500000,149.000000 
"/>
<path fill="none" opacity="1.000000" stroke="#000000" stroke-linecap="round" stroke-linejoin="round" stroke-width="3.000000"
	d="
M223.500000,273.500000 
	C234.488754,270.818512 242.749664,263.278046 251.560944,256.802704 
	C257.520325,263.991486 265.054199,266.700287 273.015259,268.429810 
	C275.131561,268.889557 277.476227,268.762085 279.500000,267.500000 
"/>
<path fill="none" opacity="1.000000" stroke="#000000" stroke-linecap="round" stroke-linejoin="round" stroke-width="2.000000"
	d="
M273.500000,159.500000 
	C270.909637,158.112488 268.237732,157.264328 265.517303,159.026688 
	C264.025909,159.992813 262.494019,159.424988 260.999084,159.468460 
	C250.168839,159.783401 239.319611,158.941162 228.500000,160.000000 
"/>
<path fill="none" opacity="1.000000" stroke="#000000" stroke-linecap="round" stroke-linejoin="round" stroke-width="2.000000"
	d="
M279.500000,372.500000 
	C276.909241,371.118591 274.466583,371.156494 271.461395,371.826935 
	C265.256226,373.211243 258.833344,372.809692 252.500000,372.000000 
"/>
<path fill="none" opacity="1.000000" stroke="#000000" stroke-linecap="round" stroke-linejoin="round" stroke-width="2.000000"
	d="
M68.500000,242.500000 
	C68.500000,249.833328 68.500000,257.166656 68.500000,264.500000 
"/>
<path fill="none" opacity="1.000000" stroke="#000000" stroke-linecap="round" stroke-linejoin="round" stroke-width="3.000000"
	d="
M279.500000,333.500000 
	C271.927032,331.563507 264.198090,332.010193 256.500000,332.002136 
	C247.666672,331.992889 238.833328,332.000000 230.000000,332.000000 
"/>
<path fill="none" opacity="1.000000" stroke="#000000" stroke-linecap="round" stroke-linejoin="round" stroke-width="5.000000"
	d="
M234.500000,194.000000 
	C232.807114,194.096619 230.914352,193.844299 230.991653,196.500244 
	C231.335999,208.330780 230.339432,220.180664 231.500000,232.000000 
"/>
<path fill="none" opacity="1.000000" stroke="#000000" stroke-linecap="round" stroke-linejoin="round" stroke-width="2.000000"
	d="
M308.000000,348.000000 
	C302.633789,349.104126 304.129639,353.033783 304.059235,356.937714 
	C307.493896,356.741150 310.491425,356.569641 313.603516,356.391541 
	C315.684174,354.064697 313.391388,351.069763 315.170135,348.763763 
	C312.551086,347.720337 310.392548,349.455994 308.500000,348.000000 
"/>
<path fill="none" opacity="1.000000" stroke="#000000" stroke-linecap="round" stroke-linejoin="round" stroke-width="3.000000"
	d="
M315.500000,183.500000 
	C312.019257,183.552780 309.498322,185.173782 307.467682,187.976578 
	C304.773560,191.695129 305.835144,194.289627 310.484131,195.558197 
	C312.850220,196.203812 315.168915,195.801743 317.500000,196.000000 
"/>
<path fill="none" opacity="1.000000" stroke="#000000" stroke-linecap="round" stroke-linejoin="round" stroke-width="3.000000"
	d="
M250.000000,361.000000 
	C243.500000,361.000000 237.000000,361.000000 230.500000,361.000000 
"/>
<path fill="none" opacity="1.000000" stroke="#000000" stroke-linecap="round" stroke-linejoin="round" stroke-width="2.000000"
	d="
M279.500000,203.500000 
	C277.557343,202.645279 275.671478,201.644043 273.488037,202.980438 
	C271.619415,204.124146 269.496521,203.444214 267.499634,203.467865 
	C260.500610,203.550751 253.499832,203.524048 246.500183,203.473969 
	C245.452530,203.466492 244.070969,204.120453 243.500000,202.500000 
"/>
<path fill="none" opacity="1.000000" stroke="#000000" stroke-linecap="round" stroke-linejoin="round" stroke-width="2.000000"
	d="
M425.500000,262.500000 
	C425.500000,268.833344 425.500000,275.166656 425.500000,281.500000 
"/>
<path fill="none" opacity="1.000000" stroke="#000000" stroke-linecap="round" stroke-linejoin="round" stroke-width="5.000000"
	d="
M251.000000,160.000000 
	C251.000000,166.333328 251.000000,172.666672 251.000000,179.000000 
"/>
<path fill="none" opacity="1.000000" stroke="#000000" stroke-linecap="round" stroke-linejoin="round" stroke-width="2.000000"
	d="
M298.500000,217.500000 
	C303.062592,216.353638 306.983459,218.416061 311.012238,220.148819 
	C311.425476,225.178360 311.425781,225.168259 305.999817,225.006058 
	C304.328766,224.956085 302.381714,224.899612 302.067841,227.010086 
	C301.719757,229.350876 303.115112,230.551544 305.500000,230.500000 
"/>
<path fill="none" opacity="1.000000" stroke="#000000" stroke-linecap="round" stroke-linejoin="round" stroke-width="2.000000"
	d="
M298.000000,309.500000 
	C296.161530,311.357788 296.591522,313.725037 296.482819,315.999176 
	C296.299133,319.843079 297.213531,323.786682 295.500000,327.500000 
"/>
<path fill="none" opacity="1.000000" stroke="#000000" stroke-linecap="round" stroke-linejoin="round" stroke-width="2.000000"
	d="
M304.500000,263.500000 
	C308.697479,260.600037 311.882904,257.194427 311.031403,251.495316 
	C310.706757,249.322433 310.273651,247.559677 307.500000,248.000000 
"/>
<path fill="none" opacity="1.000000" stroke="#000000" stroke-linecap="round" stroke-linejoin="round" stroke-width="5.000000"
	d="
M245.000000,214.999985 
	C248.831482,214.774643 252.662979,214.549301 256.669922,214.313629 
	C255.032700,220.922119 257.570831,227.511810 253.552505,233.150681 
	C251.476883,232.584595 249.488449,232.042297 247.500000,231.500000 
"/>
<path fill="none" opacity="1.000000" stroke="#000000" stroke-linecap="round" stroke-linejoin="round" stroke-width="3.000000"
	d="
M270.500000,167.500000 
	C268.055603,166.989029 265.978790,165.823792 264.770721,169.932587 
	C263.696289,173.587051 260.666687,176.666672 258.500000,180.000000 
"/>
<path fill="none" opacity="1.000000" stroke="#000000" stroke-linecap="round" stroke-linejoin="round" stroke-width="2.000000"
	d="
M199.500000,260.500000 
	C205.007431,258.558624 205.007431,255.988770 199.499771,250.999786 
	C197.047409,252.118851 195.499664,253.872925 194.388901,256.452148 
	C193.296844,258.987915 191.055084,262.338104 188.132355,260.755554 
	C185.186249,259.160339 186.603348,255.544388 187.337662,252.461334 
	C187.898727,250.105606 189.853989,251.697647 190.500000,250.500000 
"/>
<path fill="none" opacity="1.000000" stroke="#000000" stroke-linecap="round" stroke-linejoin="round" stroke-width="3.000000"
	d="
M303.500031,242.500000 
	C303.666687,243.666672 304.338074,245.074341 303.915375,245.959579 
	C301.719482,250.558380 303.980316,254.455688 305.500000,258.500000 
"/>
<path fill="none" opacity="1.000000" stroke="#000000" stroke-linecap="round" stroke-linejoin="round" stroke-width="3.000000"
	d="
M267.500000,358.500000 
	C265.896820,360.739868 265.651672,360.944153 262.999756,360.984253 
	C259.000671,361.044769 255.000000,361.000000 251.000000,361.000000 
"/>
<path fill="none" opacity="1.000000" stroke="#000000" stroke-linecap="round" stroke-linejoin="round" stroke-width="3.000000"
	d="
M252.500000,301.500000 
	C245.212891,304.298309 237.488220,305.455811 229.534943,307.625916 
	C229.808640,308.830261 228.651199,310.039734 229.500000,311.500000 
"/>
<path fill="none" opacity="1.000000" stroke="#000000" stroke-linecap="round" stroke-linejoin="round" stroke-width="3.000000"
	d="
M294.500000,287.500000 
	C299.790375,289.041199 305.210480,286.431610 310.500000,288.000000 
"/>
<path fill="none" opacity="1.000000" stroke="#000000" stroke-linecap="round" stroke-linejoin="round" stroke-width="2.000000"
	d="
M265.000000,289.500000 
	C255.500000,289.500000 246.000000,289.500000 236.500000,289.500000 
"/>
<path fill="none" opacity="1.000000" stroke="#000000" stroke-linecap="round" stroke-linejoin="round" stroke-width="5.000000"
	d="
M234.500000,270.000000 
	C236.143784,271.714050 235.967636,273.850464 236.025131,275.999329 
	C236.283783,285.664948 235.349136,295.350311 236.500000,305.000000 
"/>
<path fill="none" opacity="1.000000" stroke="#000000" stroke-linecap="round" stroke-linejoin="round" stroke-width="2.000000"
	d="
M278.500000,180.500000 
	C275.666656,179.330826 273.051422,179.722565 269.952545,180.175095 
	C264.290253,181.001953 258.305664,181.134918 252.500000,180.000000 
"/>
<path fill="none" opacity="1.000000" stroke="#000000" stroke-linecap="round" stroke-linejoin="round" stroke-width="3.000000"
	d="
M317.000000,310.500000 
	C318.865753,315.274750 318.051941,320.141876 317.500000,325.000000 
"/>
<path fill="none" opacity="1.000000" stroke="#000000" stroke-linecap="round" stroke-linejoin="round" stroke-width="3.000000"
	d="
M197.000000,311.500000 
	C197.346878,313.949585 195.842484,314.089813 193.999207,314.021118 
	C191.657227,313.933838 189.309525,314.000000 187.455521,314.000000 
	C184.734390,317.463257 188.540619,321.065674 186.000000,324.000000 
"/>
<path fill="none" opacity="1.000000" stroke="#000000" stroke-linecap="round" stroke-linejoin="round" stroke-width="5.000000"
	d="
M268.000000,232.500000 
	C270.637451,237.368637 273.722778,241.892731 278.000000,245.500000 
"/>
<path fill="none" opacity="1.000000" stroke="#000000" stroke-linecap="round" stroke-linejoin="round" stroke-width="4.000000"
	d="
M274.500000,212.500000 
	C275.281067,218.743210 272.316254,223.536392 268.500000,228.000000 
"/>
<path fill="none" opacity="1.000000" stroke="#000000" stroke-linecap="round" stroke-linejoin="round" stroke-width="2.000000"
	d="
M186.500000,167.500000 
	C186.549606,170.202133 186.211029,172.952789 187.459351,175.670929 
	C189.333328,176.230179 191.166672,176.193451 192.925003,175.528534 
	C193.707001,173.545029 193.478241,171.512070 193.500000,169.500000 
"/>
<path fill="none" opacity="1.000000" stroke="#000000" stroke-linecap="round" stroke-linejoin="round" stroke-width="3.000000"
	d="
M187.500000,200.500000 
	C189.297409,196.487030 192.218826,198.255753 195.004929,198.981079 
	C198.045670,199.772705 197.713165,202.254684 198.013535,204.498184 
	C198.429962,207.608566 196.248505,208.313492 194.000702,209.000153 
	C193.109512,205.702850 192.398819,202.396729 193.500000,199.000000 
"/>
<path fill="none" opacity="1.000000" stroke="#000000" stroke-linecap="round" stroke-linejoin="round" stroke-width="2.000000"
	d="
M197.500000,228.500000 
	C197.500000,230.000763 197.500000,231.501541 197.500000,232.375687 
	C194.083450,234.668793 190.921768,231.925247 188.000000,233.500000 
"/>
<path fill="none" opacity="1.000000" stroke="#000000" stroke-linecap="round" stroke-linejoin="round" stroke-width="2.000000"
	d="
M249.500000,272.000000 
	C245.248108,273.392029 240.751892,271.607971 236.500000,273.000000 
"/>
<path fill="none" opacity="1.000000" stroke="#000000" stroke-linecap="round" stroke-linejoin="round" stroke-width="3.000000"
	d="
M202.500000,294.500000 
	C203.066025,297.399353 201.278656,299.032867 199.090057,297.835419 
	C195.798599,296.034546 192.619064,298.288086 189.471451,297.074005 
	C187.714233,296.396271 186.870300,297.911041 186.500000,299.500000 
"/>
<path fill="none" opacity="1.000000" stroke="#000000" stroke-linecap="round" stroke-linejoin="round" stroke-width="3.000000"
	d="
M203.000000,264.500000 
	C203.264786,268.719086 199.507797,267.100983 197.974289,267.280823 
	C194.553757,267.682037 190.994354,266.899078 187.523407,266.601349 
	C187.729431,267.500000 186.376190,268.500000 187.500000,269.500000 
"/>
<path fill="none" opacity="1.000000" stroke="#000000" stroke-linecap="round" stroke-linejoin="round" stroke-width="3.000000"
	d="
M268.500000,323.000000 
	C267.416656,323.000000 265.617920,322.605988 265.365814,323.063782 
	C263.697327,326.093170 260.532806,328.068756 259.500000,331.500000 
"/>
<path fill="none" opacity="1.000000" stroke="#000000" stroke-linecap="round" stroke-linejoin="round" stroke-width="5.000000"
	d="
M265.500000,291.500000 
	C265.500000,285.493347 265.500000,279.486725 265.500000,273.182465 
	C262.003784,271.409058 257.072784,273.376129 252.500000,272.000000 
"/>
<path fill="none" opacity="1.000000" stroke="#000000" stroke-linecap="round" stroke-linejoin="round" stroke-width="5.000000"
	d="
M266.500000,193.000000 
	C264.947266,193.400497 263.698425,193.850784 263.941467,196.006592 
	C264.201233,198.310638 264.000000,200.666672 264.000000,203.000000 
"/>
<path fill="none" opacity="1.000000" stroke="#000000" stroke-linecap="round" stroke-linejoin="round" stroke-width="2.000000"
	d="
M197.500000,221.500000 
	C197.500000,219.493118 197.500000,217.486252 197.500000,215.630402 
	C195.059647,214.489426 193.259186,215.017792 191.500000,216.000000 
"/>
<path fill="none" opacity="1.000000" stroke="#000000" stroke-linecap="round" stroke-linejoin="round" stroke-width="2.000000"
	d="
M191.500000,220.500000 
	C191.456665,218.440002 192.020645,216.159164 189.264206,214.959000 
	C186.733765,216.300140 187.383301,218.862320 187.563705,220.994614 
	C187.901459,224.986557 186.081879,226.128021 182.500000,225.500000 
"/>
<path fill="none" opacity="1.000000" stroke="#000000" stroke-linecap="round" stroke-linejoin="round" stroke-width="3.000000"
	d="
M203.500000,147.500000 
	C202.942581,149.878555 201.754395,151.317093 198.995148,151.050247 
	C197.690140,150.924026 196.333328,151.333328 195.000000,151.499985 
"/>
<path fill="none" opacity="1.000000" stroke="#000000" stroke-linecap="round" stroke-linejoin="round" stroke-width="2.000000"
	d="
M194.500000,154.000000 
	C192.666672,155.500000 191.042526,157.534134 188.943665,158.356155 
	C186.649933,159.254486 186.487335,160.637924 186.500000,162.500000 
"/>
<path fill="none" opacity="1.000000" stroke="#000000" stroke-linecap="round" stroke-linejoin="round" stroke-width="2.000000"
	d="
M307.000000,275.500000 
	C303.500000,275.500000 300.000000,275.500000 296.500000,275.500000 
"/>
<path fill="none" opacity="1.000000" stroke="#000000" stroke-linecap="round" stroke-linejoin="round" stroke-width="5.000000"
	d="
M235.500000,338.000000 
	C237.936356,338.331451 238.089722,340.023682 238.023972,342.000793 
	C237.929840,344.831024 238.000000,347.666656 238.000000,350.500000 
"/>
<path fill="none" opacity="1.000000" stroke="#000000" stroke-linecap="round" stroke-linejoin="round" stroke-width="3.000000"
	d="
M197.500000,273.500000 
	C196.205231,276.600281 193.450317,275.949982 190.999786,275.985016 
	C189.012741,276.013458 186.887115,275.663483 186.500000,278.500000 
"/>
<path fill="none" opacity="1.000000" stroke="#000000" stroke-linecap="round" stroke-linejoin="round" stroke-width="3.000000"
	d="
M188.000000,323.000000 
	C190.500000,323.000000 193.020355,322.802216 195.494156,323.056824 
	C197.863602,323.300751 197.519974,321.882629 197.500000,320.500000 
"/>
<path fill="none" opacity="1.000000" stroke="#000000" stroke-linecap="round" stroke-linejoin="round" stroke-width="3.000000"
	d="
M272.500000,297.000000 
	C267.079346,294.799530 263.578888,298.839752 259.500000,301.000000 
"/>
<path fill="none" opacity="1.000000" stroke="#000000" stroke-linecap="round" stroke-linejoin="round" stroke-width="6.000000"
	d="
M250.500000,355.500000 
	C250.500000,360.500000 250.500000,365.500000 250.500000,370.500000 
"/>
<path fill="none" opacity="1.000000" stroke="#000000" stroke-linecap="round" stroke-linejoin="round" stroke-width="2.000000"
	d="
M279.500000,232.500000 
	C279.573303,235.751846 278.296722,238.628723 277.000000,241.500000 
"/>
<path fill="none" opacity="1.000000" stroke="#000000" stroke-linecap="round" stroke-linejoin="round" stroke-width="2.000000"
	d="
M298.500000,182.500000 
	C299.688904,183.329636 299.429596,184.052414 299.208405,185.531174 
	C298.569092,189.805847 296.751007,194.390945 300.000000,198.500000 
"/>
<path fill="none" opacity="1.000000" stroke="#000000" stroke-linecap="round" stroke-linejoin="round" stroke-width="3.000000"
	d="
M235.000000,166.000000 
	C238.375244,169.095901 240.610855,172.736832 240.500000,177.500000 
"/>
<path fill="none" opacity="1.000000" stroke="#000000" stroke-linecap="round" stroke-linejoin="round" stroke-width="5.000000"
	d="
M248.500000,320.000000 
	C250.936356,320.331451 251.109283,322.023438 251.021774,324.000977 
	C250.926071,326.163391 251.000000,328.333344 251.000000,330.500000 
"/>
<path fill="none" opacity="1.000000" stroke="#000000" stroke-linecap="round" stroke-linejoin="round" stroke-width="5.000000"
	d="
M239.500000,229.500000 
	C236.459641,232.131897 232.228165,232.018204 228.860687,234.293839 
	C226.638367,235.795609 226.010666,237.374130 225.500000,239.500000 
"/>
<path fill="none" opacity="1.000000" stroke="#000000" stroke-linecap="round" stroke-linejoin="round" stroke-width="2.000000"
	d="
M186.500000,146.500000 
	C187.248184,147.548141 186.505585,149.022217 187.913666,149.893509 
	C195.387329,150.166351 198.948303,156.163879 203.000000,161.500000 
"/>
<path fill="none" opacity="1.000000" stroke="#000000" stroke-linecap="round" stroke-linejoin="round" stroke-width="3.000000"
	d="
M234.500000,321.500000 
	C237.083832,323.031616 239.084579,325.056641 240.000000,328.000000 
"/>
<path fill="none" opacity="1.000000" stroke="#000000" stroke-linecap="round" stroke-linejoin="round" stroke-width="2.000000"
	d="
M265.500000,148.500000 
	C261.071259,146.186035 256.833679,148.842422 252.500000,149.000000 
"/>
<path fill="none" opacity="1.000000" stroke="#000000" stroke-linecap="round" stroke-linejoin="round" stroke-width="3.000000"
	d="
M318.500000,287.500000 
	C315.833344,287.666687 313.166656,287.833344 310.500000,288.000000 
"/>
<path fill="none" opacity="1.000000" stroke="#000000" stroke-linecap="round" stroke-linejoin="round" stroke-width="3.000000"
	d="
M229.500000,328.500000 
	C229.328415,332.282196 228.779541,335.947632 226.250000,339.000000 
"/>
<path fill="none" opacity="1.000000" stroke="#000000" stroke-linecap="round" stroke-linejoin="round" stroke-width="2.000000"
	d="
M306.000000,212.000000 
	C309.629486,213.450638 307.009644,215.942841 307.000000,218.000000 
"/>
<path fill="none" opacity="1.000000" stroke="#000000" stroke-linecap="round" stroke-linejoin="round" stroke-width="3.000000"
	d="
M192.500000,298.000000 
	C192.761017,300.110046 193.795517,301.680176 195.455109,303.054230 
	C196.521011,303.936707 198.653992,304.270966 198.000000,306.500000 
"/>
<path fill="none" opacity="1.000000" stroke="#000000" stroke-linecap="round" stroke-linejoin="round" stroke-width="2.000000"
	d="
M310.000000,289.000000 
	C310.510132,295.208862 310.348297,295.370728 305.500000,293.500000 
"/>
<path fill="none" opacity="1.000000" stroke="#000000" stroke-linecap="round" stroke-linejoin="round" stroke-width="3.000000"
	d="
M315.000000,343.000000 
	C313.994324,344.644012 312.361725,343.991241 311.000977,343.958710 
	C308.398254,343.896484 307.819611,345.321564 308.000000,347.500000 
"/>
<path fill="none" opacity="1.000000" stroke="#000000" stroke-linecap="round" stroke-linejoin="round" stroke-width="2.000000"
	d="
M186.500000,228.500000 
	C186.666656,231.500000 186.833328,234.500000 187.000000,237.500000 
"/>
<path fill="none" opacity="1.000000" stroke="#000000" stroke-linecap="round" stroke-linejoin="round" stroke-width="2.000000"
	d="
M302.500000,150.000000 
	C302.412415,154.875992 303.587036,159.882568 301.000000,164.500000 
"/>
<path fill="none" opacity="1.000000" stroke="#000000" stroke-linecap="round" stroke-linejoin="round" stroke-width="2.000000"
	d="
M83.000000,303.000000 
	C83.101265,304.753601 80.384903,305.943634 82.000000,308.000000 
"/>
<path fill="none" opacity="1.000000" stroke="#000000" stroke-linecap="round" stroke-linejoin="round" stroke-width="2.000000"
	d="
M162.500000,130.500000 
	C161.000000,130.666672 159.500000,130.833328 158.000000,131.000000 
"/>
<path fill="none" opacity="1.000000" stroke="#000000" stroke-linecap="round" stroke-linejoin="round" stroke-width="2.000000"
	d="
M197.500000,173.500000 
	C196.502823,174.838974 195.978226,177.123138 193.500000,175.500000 
"/>
<path fill="none" opacity="1.000000" stroke="#000000" stroke-linecap="round" stroke-linejoin="round" stroke-width="2.000000"
	d="
M226.000000,210.500000 
	C229.159241,210.192245 232.384125,211.131683 235.500000,210.000000 
"/>
<path fill="none" opacity="1.000000" stroke="#000000" stroke-linecap="round" stroke-linejoin="round" stroke-width="2.000000"
	d="
M85.000000,310.000000 
	C84.787300,311.333344 81.546753,312.666656 85.000000,314.000000 
"/>
<path fill="none" opacity="1.000000" stroke="#000000" stroke-linecap="round" stroke-linejoin="round" stroke-width="3.000000"
	d="
M307.000000,271.500000 
	C306.627075,274.130371 308.159729,276.216278 309.000000,278.500000 
"/>
<path fill="none" opacity="1.000000" stroke="#000000" stroke-linecap="round" stroke-linejoin="round" stroke-width="2.000000"
	d="
M306.500000,334.500000 
	C308.518829,334.938171 307.089508,336.525726 307.500000,337.500000 
"/>
<path fill="none" opacity="1.000000" stroke="#000000" stroke-linecap="round" stroke-linejoin="round" stroke-width="2.000000"
	d="
M83.500000,307.500000 
	C83.268234,308.657379 81.494003,309.594391 83.000000,311.000000 
"/>
<path fill="none" opacity="1.000000" stroke="#000000" stroke-linecap="round" stroke-linejoin="round" stroke-width="2.000000"
	d="
M301.500000,190.500000 
	C300.955170,191.740417 300.223877,192.825470 299.000000,193.500000 
"/>
<path fill="none" opacity="1.000000" stroke="#000000" stroke-linecap="round" stroke-linejoin="round" stroke-width="2.000000"
	d="
M181.500000,214.500000 
	C184.188278,212.745178 184.188278,212.745178 188.000000,215.500000 
"/>
<path fill="none" opacity="1.000000" stroke="#000000" stroke-linecap="round" stroke-linejoin="round" stroke-width="2.000000"
	d="
M317.500000,327.500000 
	C318.236053,324.763947 316.515686,324.484314 314.500000,324.500000 
"/>
<path fill="none" opacity="1.000000" stroke="#000000" stroke-linecap="round" stroke-linejoin="round" stroke-width="2.000000"
	d="
M190.000000,345.000000 
	C186.861679,345.578644 186.506256,347.874542 186.477844,350.499756 
	C186.443939,353.632629 188.682663,354.437592 190.968857,355.563232 
	C193.489090,356.804108 195.037170,355.182983 196.444214,353.937012 
	C199.312042,351.397430 198.117508,347.906647 194.576385,345.867340 
	C193.110214,345.023010 191.866318,345.201385 190.500000,345.000000 
"/>
<path fill="none" opacity="1.000000" stroke="#000000" stroke-linecap="round" stroke-linejoin="round" stroke-width="2.000000"
	d="
M190.000000,281.000000 
	C186.861679,281.578644 186.506256,283.874542 186.477829,286.499756 
	C186.443924,289.632599 188.682648,290.437622 190.968842,291.563263 
	C193.489075,292.804138 195.037155,291.182953 196.444199,289.936981 
	C199.312042,287.397430 198.117508,283.906616 194.576385,281.867340 
	C193.110214,281.023010 191.866318,281.201385 190.500000,281.000000 
"/>
</svg>